# Blender3D v249 OBJ File: 
# www.blender3d.org
o cube.002
v 5.514023 0.100418 -0.101736
v 5.514023 -0.100418 -0.101736
v -5.514023 -0.100418 -0.101736
v -5.514023 0.100418 -0.101736
v 5.514023 0.100418 0.101736
v 5.514018 -0.100418 0.101736
v -5.514023 -0.100418 0.101736
v -5.514023 0.100418 0.101736
vt 0.748573 0.750412
vt 0.749279 0.501284
vt 0.999110 0.501077
vt 0.999455 0.750380
vt 0.250471 0.500702
vt 0.249682 0.749677
vt 0.001085 0.750380
vt 0.001517 0.499994
vt 0.499422 0.500239
vt 0.500149 0.750166
vt 0.748355 0.998230
vt 0.500193 0.998728
vt 0.498993 0.250415
vt 0.748953 0.250920
vn 0.000000 1.000000 0.000000
vn -1.000000 -0.000000 -0.000000
vn 0.000000 -1.000000 -0.000000
vn 1.000000 -0.000000 0.000000
vn 1.000000 -0.000028 0.000028
vn 0.000000 -0.000000 1.000000
vn 0.000000 0.000000 -1.000000
usemtl Material_ray.png.002
s off
f 5/1/1 1/2/1 4/3/1
f 5/1/1 4/3/1 8/4/1
f 3/5/2 7/6/2 8/7/2
f 3/5/2 8/7/2 4/8/2
f 2/9/3 6/10/3 3/5/3
f 6/10/3 7/6/3 3/5/3
f 1/2/4 5/1/4 2/9/4
f 5/1/5 6/10/5 2/9/5
f 5/1/6 8/11/6 6/10/6
f 8/11/6 7/12/6 6/10/6
f 1/2/7 2/9/7 3/13/7
f 1/2/7 3/13/7 4/14/7
