# Blender3D v249 OBJ File: 
# www.blender3d.org
o cube
v 1.000000 1.000000 -1.000000
v 1.000000 -1.000000 -1.000000
v -1.000000 -1.000000 -1.000000
v -1.000000 1.000000 -1.000000
v -0.132479 0.095956 1.000000
v -0.128701 0.068930 1.000000
v -0.162704 0.073874 1.000000
v -0.159945 0.100946 1.000000
vt 0.748573 0.750412
vt 0.749279 0.501284
vt 0.999110 0.501077
vt 0.999455 0.750380
vt 0.250471 0.500702
vt 0.249682 0.749677
vt 0.001085 0.750380
vt 0.001517 0.499994
vt 0.499422 0.500239
vt 0.500149 0.750166
vt 0.748355 0.998230
vt 0.500193 0.998728
vt 0.498993 0.250415
vt 0.748953 0.250920
vn -0.000000 0.911231 0.411896
vn 0.167791 0.923594 0.344703
vn -0.935427 0.095344 0.340420
vn -0.921973 0.000000 0.387254
vn 0.000000 -0.881938 0.471365
vn -0.123850 -0.851711 0.509165
vn 0.870182 0.000000 0.492731
vn 0.891125 0.124591 0.436317
vn -0.000000 -0.000000 1.000000
vn 0.000000 0.000000 -1.000000
usemtl Material_ray.png
s off
f 5/1/1 1/2/1 4/3/1
f 5/1/2 4/3/2 8/4/2
f 3/5/3 7/6/3 8/7/3
f 3/5/4 8/7/4 4/8/4
f 2/9/5 6/10/5 3/5/5
f 6/10/6 7/6/6 3/5/6
f 1/2/7 5/1/7 2/9/7
f 5/1/8 6/10/8 2/9/8
f 5/1/9 8/11/9 6/10/9
f 8/11/9 7/12/9 6/10/9
f 1/2/10 2/9/10 3/13/10
f 1/2/10 3/13/10 4/14/10
