# Blender3D v249 OBJ File: 
# www.blender3d.org
o cube
v 1.000000 1.000000 -0.498691
v 1.000000 -1.000000 -0.495000
v -1.000000 -1.000000 -0.492548
v -1.000000 1.000000 -0.496398
v 0.499638 0.500481 1.000000
v 0.499637 -0.500482 1.000000
v -0.511475 -0.491395 1.000000
v -0.496435 0.502771 1.000000
vt 0.748573 0.750412
vt 0.749279 0.501284
vt 0.999110 0.501077
vt 0.999455 0.750380
vt 0.250471 0.500702
vt 0.249682 0.749677
vt 0.001085 0.750380
vt 0.001517 0.499994
vt 0.499422 0.500239
vt 0.500149 0.750166
vt 0.748355 0.998230
vt 0.500193 0.998728
vt 0.498993 0.250415
vt 0.748953 0.250920
vn 0.000363 0.948655 0.316311
vn 0.002182 0.949199 0.314669
vn -0.951728 0.014398 0.306604
vn -0.947712 0.000614 0.319126
vn 0.000389 -0.948418 0.317021
vn -0.008499 -0.945666 0.325030
vn 0.948473 0.000585 0.316858
vn 0.948296 -0.000001 0.317386
vn -0.000000 -0.000000 1.000000
vn -0.001226 -0.001845 -0.999998
vn -0.001146 -0.001925 -0.999997
usemtl Material_ray.png
s off
f 5/1/1 1/2/1 4/3/1
f 5/1/2 4/3/2 8/4/2
f 3/5/3 7/6/3 8/7/3
f 3/5/4 8/7/4 4/8/4
f 2/9/5 6/10/5 3/5/5
f 6/10/6 7/6/6 3/5/6
f 1/2/7 5/1/7 2/9/7
f 5/1/8 6/10/8 2/9/8
f 5/1/9 8/11/9 6/10/9
f 8/11/9 7/12/9 6/10/9
f 1/2/10 2/9/10 3/13/10
f 1/2/11 3/13/11 4/14/11
